# xmcd CD Database Entry
#
# Track frame offsets:
# 150
# 19593
# 40898
# 68765
# 94665
# 118824
# 138632
# 154779
# 172639
# 205049
# 227852
# 250487
#
# Disc length: 3803 seconds
#
# Revision: 2
# Processed by: cddbd v1.4PL0 Copyright (c) Steve Scherf et al.
# Submitted via: tcd 2.0b
#
DISCID=9b0ed90c
DTITLE=VANGELIS/DIRECT
DYEAR=1900
DGENRE=
TTITLE0=The motion of the stars
TTITLE1=The wild of the wind
TTITLE2=Metallic rain
TTITLE3=Else where
TTITLE4=Dial out
TTITLE5=Glorianna (hymn a la feme)
TTITLE6=Rotation's logic
TTITLE7=The oracle of Apolo
TTITLE8=Message
TTITLE9=Ave
TTITLE10=First approch
TTITLE11=Intergalactic radio station
EXTD=
EXTT0=
EXTT1=
EXTT2=
EXTT3=
EXTT4=
EXTT5=
EXTT6=
EXTT7=
EXTT8=
EXTT9=
EXTT10=
EXTT11=
PLAYORDER=
